<?xml version="1.0" standalone="no"?>
<!DOCTYPE svg PUBLIC "-//W3C//DTD SVG 20010904//EN"
 "http://www.w3.org/TR/2001/REC-SVG-20010904/DTD/svg10.dtd">
<svg version="1.0" xmlns="http://www.w3.org/2000/svg"
 width="512.000000pt" height="512.000000pt" viewBox="0 0 512.000000 512.000000"
 preserveAspectRatio="xMidYMid meet">
<metadata>
Created by potrace 1.14, written by Peter Selinger 2001-2017
</metadata>
<g transform="translate(0.000000,512.000000) scale(0.100000,-0.100000)"
fill="#000000" stroke="none">
<path d="M2370 4899 c-86 -15 -102 -20 -139 -43 -109 -69 -204 -230 -236 -397
-3 -13 -7 -35 -10 -49 -17 -81 -23 -289 -9 -311 3 -6 -2 -9 -12 -7 -17 3 -19
-4 -17 -61 3 -62 2 -64 -16 -45 -10 10 -16 25 -13 33 4 10 1 13 -11 8 -9 -3
-21 1 -29 10 -44 54 -255 183 -298 183 -9 0 -21 5 -28 12 -8 8 -21 9 -49 0
-21 -6 -60 -16 -88 -23 -92 -21 -317 -141 -347 -183 -4 -6 -10 -8 -13 -4 -7 7
37 97 69 142 37 51 89 94 156 129 58 31 160 64 200 66 8 0 43 2 78 4 80 5 162
-17 270 -72 46 -24 86 -41 88 -38 11 11 -22 46 -80 85 -99 66 -161 85 -280 84
-56 -1 -77 -3 -145 -17 -140 -28 -291 -130 -356 -241 -31 -52 -65 -147 -65
-179 0 -13 -20 -51 -44 -86 -24 -35 -56 -96 -71 -135 -21 -53 -35 -76 -58 -89
-51 -30 -104 -84 -128 -128 -57 -107 -3 -275 134 -417 50 -51 120 -89 243
-131 81 -27 98 -32 161 -44 16 -3 34 -8 41 -10 8 -3 64 -8 125 -11 62 -4 113
-8 115 -9 2 -2 -27 -13 -65 -25 -285 -93 -486 -325 -537 -623 -22 -123 -6
-226 59 -380 18 -44 91 -127 111 -127 8 0 14 -4 14 -9 0 -11 104 -57 150 -66
57 -12 123 -14 165 -5 22 5 60 12 85 15 24 4 47 8 50 10 3 2 30 -12 60 -31 36
-23 63 -50 82 -82 l28 -48 -34 -66 c-122 -233 -404 -625 -651 -903 -91 -103
-177 -190 -291 -291 -82 -74 -101 -113 -23 -48 24 20 64 53 89 73 85 69 326
316 410 420 19 24 50 62 69 85 173 210 350 489 426 671 l16 40 20 -24 c10 -13
19 -32 19 -43 0 -10 5 -16 10 -13 6 4 32 -11 58 -33 68 -57 147 -105 227 -138
59 -24 84 -29 155 -28 74 0 94 4 153 32 142 66 255 237 301 455 13 65 14 218
1 281 -6 28 -3 26 54 -26 85 -79 292 -225 381 -269 115 -57 181 -73 295 -74
142 0 226 27 324 104 79 63 137 180 147 299 5 61 3 72 -25 126 -17 32 -31 59
-31 61 0 12 49 21 170 34 126 13 132 15 214 54 119 57 227 167 255 257 37 122
-15 319 -114 429 -61 68 -71 77 -124 119 -81 64 -168 112 -251 139 -151 48
-267 52 -417 12 -74 -20 -64 -5 40 59 56 35 116 76 134 92 88 79 184 231 247
388 61 153 63 224 10 382 -53 159 -143 262 -266 306 -116 42 -297 13 -428 -67
-55 -34 -64 -28 -86 56 -29 109 -136 220 -276 288 -69 34 -100 47 -123 53 -5
1 -44 11 -85 23 -113 30 -259 43 -340 30z m229 -43 c6 -4 23 -9 39 -11 54 -6
186 -66 268 -120 96 -64 178 -149 233 -242 22 -37 52 -76 65 -86 25 -17 27
-17 67 4 98 50 162 64 284 64 75 0 98 -4 140 -24 52 -26 131 -100 152 -142 73
-150 95 -281 62 -376 -9 -28 -15 -53 -13 -56 3 -3 1 -8 -5 -11 -6 -4 -8 3 -6
16 11 59 13 119 5 174 -13 93 -19 115 -52 176 -79 148 -209 216 -361 187 -23
-4 -58 -10 -77 -13 -19 -3 -71 -13 -115 -21 -125 -25 -205 -26 -253 -5 -54 24
-66 50 -64 138 2 76 -8 104 -53 149 -36 34 -115 70 -185 81 -330 55 -481 25
-585 -115 -29 -41 -79 -155 -89 -203 -2 -8 -6 -22 -9 -30 -8 -23 -18 -79 -24
-140 -9 -95 -16 -70 -10 35 7 106 8 117 33 218 1 4 2 8 3 10 2 1 4 12 7 25 6
33 44 120 70 162 49 78 119 135 191 155 49 13 261 14 282 1z m-1768 -1316 c1
-36 6 -78 11 -95 29 -95 13 -119 -32 -48 l-31 48 7 -35 c11 -56 66 -160 106
-201 21 -21 58 -50 83 -65 51 -30 145 -67 145 -58 0 10 -32 33 -67 49 -18 8
-33 19 -33 24 0 17 22 13 45 -9 18 -17 24 -17 45 -6 25 12 47 8 115 -24 11 -6
85 -36 164 -68 93 -39 137 -61 127 -65 -19 -7 -242 -1 -255 7 -4 3 -43 12 -87
21 -101 21 -226 69 -285 108 -95 64 -180 211 -182 314 -1 41 5 59 27 92 24 34
85 85 93 78 1 -1 3 -32 4 -67z m2967 -281 c32 -6 62 -12 69 -13 7 -1 16 -5 19
-9 4 -4 16 -7 26 -7 10 0 26 -4 36 -10 9 -5 37 -18 62 -29 86 -39 242 -172
302 -259 64 -93 101 -260 75 -337 -14 -41 -71 -112 -126 -158 -84 -69 -156
-97 -318 -124 -81 -13 -159 -30 -173 -36 -39 -19 -38 -63 6 -147 34 -65 36
-76 31 -131 -6 -71 -45 -156 -92 -203 -100 -100 -277 -144 -429 -106 -71 18
-159 50 -154 56 2 1 28 -3 58 -10 123 -29 258 -16 327 31 35 24 100 46 112 39
17 -11 40 6 46 34 3 16 13 34 21 40 16 14 10 32 -9 24 -15 -5 -43 86 -61 206
-8 47 -17 101 -21 121 l-7 36 114 28 c181 45 318 108 391 182 38 38 44 40 52
13 3 -11 13 -20 21 -20 17 0 17 5 3 45 -10 26 -9 36 6 59 l18 27 13 -29 c6
-16 17 -33 23 -36 16 -10 14 30 -4 64 -10 19 -12 36 -7 51 8 21 11 19 38 -29
26 -47 54 -68 54 -41 0 15 -30 78 -52 111 -13 18 -18 41 -16 65 l3 37 29 -53
c21 -39 31 -50 37 -40 13 21 13 20 -41 103 -27 42 -50 83 -50 90 0 8 -21 45
-46 82 -75 113 -184 187 -331 224 -90 24 -137 29 -272 29 -129 1 -126 10 9 27
25 4 46 7 47 8 10 8 115 5 161 -5z m-2813 -60 c12 -19 -5 -23 -22 -6 -16 16
-16 17 -1 17 9 0 20 -5 23 -11z m111 -601 c-8 -13 -27 -54 -41 -92 -46 -123
-41 -277 14 -389 10 -20 15 -40 10 -43 -5 -3 -9 -14 -9 -26 0 -16 5 -19 21
-15 12 3 29 1 39 -6 18 -10 18 -12 -1 -39 -11 -15 -18 -32 -15 -37 9 -14 48 0
42 15 -9 23 13 26 43 5 67 -48 122 -64 221 -65 79 0 102 3 139 22 25 12 48 22
53 22 4 0 22 -28 39 -62 96 -190 166 -282 274 -357 83 -59 156 -82 252 -82 34
0 65 -5 69 -10 4 -7 15 -3 28 9 37 33 95 62 102 51 6 -11 44 17 44 32 0 5 22
47 49 94 69 120 85 194 86 381 0 108 3 150 11 147 49 -18 78 -263 49 -412 -21
-108 -98 -263 -167 -337 -50 -53 -142 -95 -222 -101 -126 -10 -325 91 -433
219 -23 28 -65 97 -94 153 -31 61 -62 109 -76 116 -19 10 -40 7 -130 -16 -150
-40 -209 -43 -291 -15 -106 36 -161 80 -202 160 -65 129 -82 274 -48 403 21
79 74 195 119 257 31 42 50 56 25 18z"/>
<path d="M1180 1940 c8 -5 24 -9 35 -9 l20 0 -20 9 c-11 5 -27 9 -35 9 -13 1
-13 0 0 -9z"/>
<path d="M1505 4292 c-48 -9 -97 -24 -92 -29 3 -2 29 0 59 6 29 6 63 12 75 14
12 2 26 6 30 10 7 7 -30 7 -72 -1z"/>
</g>
</svg>
